<?xml version="1.0" encoding="utf-8"?>
<!-- Generator: Adobe Illustrator 19.2.1, SVG Export Plug-In . SVG Version: 6.00 Build 0)  -->
<svg version="1.1" id="Layer_1" xmlns="http://www.w3.org/2000/svg" xmlns:xlink="http://www.w3.org/1999/xlink" x="0px" y="0px"
	 viewBox="0 0 841.9 595.3" style="enable-background:new 0 0 841.9 595.3;" xml:space="preserve">
<style type="text/css">
	.st0{fill:#FFFFFF;stroke:#FFFFFF;stroke-width:2;}
	.st1{fill:#D6E03D;stroke:#D6E03D;}
	.st2{fill:#FFFFFF;}
	.st3{fill:#414042;}
	.st4{font-family:'BodoniSvtyTwoSCITCTT-Book';}
	.st5{font-size:263.1322px;}
	.st6{font-size:265.2287px;}
</style>
<g>
	<g>
		<path class="st0" d="M170.4,387.6h0.5l5.8-0.1c11.5,0,16.5,5.8,16.5,19c0,10.4-1.3,13.9-5.7,16.6c-2.6,1.6-3.6,1.9-7.5,2.3
			c12.4,0.9,17.6,6.3,17.6,18.2c0,11.5-3.1,16.5-11.3,18.9c-2.6,0.7-5.6,1-8.6,1h-0.5h-25.4v-0.8h5.7v-74.2l-5.7,0.1v-0.9
			L170.4,387.6z M165.1,425.3h10.2h0.5c8.4,0,10.2-2.8,10.2-16.2c0-13.9-0.9-17.8-4.3-19.7c-1-0.6-4-1-6.5-1h-0.1l-10,0.1V425.3z
			 M165.1,462.6l9.2,0.1h0.2h0.2c4.8,0,8-0.3,9.2-0.8c4.7-1.8,6.1-5.5,6.1-15.1c0-1,0-1.9,0-3l-0.2-7.7c-0.3-7.1-4-10-12.7-10h-0.3
			h-11.7V462.6z"/>
		<path class="st0" d="M259,462.7h6.3v0.8h-21.1v-0.8h6.6l-8.7-28.8h-25.5l-8.5,28.8h6.3v0.8h-15.5v-0.8h6.6l22.3-74.2h-7.7v-0.8
			H244v0.8h-7.6L259,462.7z M217.6,430.7h23.6l-11.8-38.9L217.6,430.7z"/>
		<path class="st0" d="M310.5,409.9h-4v-0.1c-0.1-12.4-7.9-22.1-17.8-22.1c-7.4,0-13,5.1-14.1,12.7c-0.5,2.8-0.7,6.3-0.7,10.2v0.3
			l0.1,30.4v0.2c0,11.7,1.9,17.2,6.9,20.1c2.3,1.4,5,1.9,8,1.9c10.8,0,17.2-7.5,17.2-20.8v-0.3h5.2v0.1c0,12.7-9.6,21.9-22.8,21.9
			c-9,0-17.2-5.1-19.9-12.7c-1.5-4.1-2.3-9.8-2.3-16.6v-0.3v-17.8v-0.3c0-16.7,3.1-23.4,12.7-27.9c3-1.3,6.1-1.9,9.6-1.9
			c9.7,0,17.2,5,20.4,13.7l0.1-12.3h1.3V409.9z"/>
		<path class="st0" d="M338.3,387.7v0.8h-6.7v35.2h30.3v-35.1h-6.7v-0.9h21.4v0.8h-6.8v74.1h6.8v0.9h-21.4v-0.8h6.7v-35.8h-30.3
			v35.7h6.7v0.9H317v-0.8h6.8v-74.1h-6.9v-0.9H338.3z"/>
		<path class="st0" d="M407.8,387.7v0.8h-7.5l20.5,61.3l20.1-61.2h-7.1v-0.9h21.4v0.8h-6.5l4.1,74.2h6.5v0.8H438v-0.8h6.7l-3.4-69.3
			l-23.4,70.1h-0.5l-23.7-70.8l-3.5,70h6.7v0.8h-15.9v-0.8h7.2l3.9-74.1h-7.7v-0.9H407.8z"/>
		<path class="st0" d="M520.5,462.7h6.3v0.8h-21.1v-0.8h6.6l-8.7-28.8h-25.5l-8.5,28.8h6.3v0.8h-15.5v-0.8h6.6l22.3-74.2h-7.7v-0.8
			h23.9v0.8h-7.6L520.5,462.7z M479,430.7h23.6l-11.8-38.9L479,430.7z"/>
		<path class="st0" d="M543.3,387.7l33.2,58.2v-57.2h-6.8v-0.9h15.1v0.8h-6.1v75.9h-0.2L537.1,392v70.6h6.7v0.9h-15.4v-0.8h6.7
			v-74.1h-6.8v-0.9H543.3z"/>
		<path class="st0" d="M641.4,408.8h-4.2v-0.3c-0.9-15.4-5.1-20.8-15.9-20.8c-8.8,0-14.7,6.6-14.7,16.5c0,9.8,4.1,14.8,14.5,17.6
			l5.4,1.5c11.5,3.2,16.4,9,16.4,19.6c0,13.1-8.3,21.6-20.6,21.6c-1.3,0-3-0.1-5-0.3c-0.6-0.1-0.9-0.1-1.1-0.1l-1.3-0.3l-2.6-0.1
			h-2.8H609h-5.3l-0.1-17h0.9v6.3c3.5,6.7,10.2,10.8,17.3,10.8c9,0,14.7-6.5,14.7-16.8c0-9.3-3.2-13.1-13.5-16.2
			c-10.9-3.2-11.7-3.4-14.7-5.8c-4-3-6.4-8.5-6.4-14.9c0-13.2,8.8-23.2,20.1-23.2c8.9,0,14.7,4.4,18.4,14v-12.9h0.9L641.4,408.8z"/>
	</g>
	<path class="st1" d="M590,398.6c0,0,16-0.2,17.8-28.9l0,0C582.5,383.3,590,398.6,590,398.6L590,398.6z"/>
	<g>
		<path class="st2" d="M647.9,457.9h-2.4v-0.9h5.8v0.9H649v7h-1V457.9z"/>
		<path class="st2" d="M658.8,461.5c-0.1-1.1-0.1-2.4-0.1-3.4h0c-0.3,0.9-0.6,1.9-1,3l-1.4,3.8h-0.8l-1.3-3.7
			c-0.4-1.1-0.7-2.1-0.9-3h0c0,1-0.1,2.3-0.2,3.5l-0.2,3.4h-1l0.5-7.8h1.3l1.3,3.8c0.3,1,0.6,1.8,0.8,2.6h0c0.2-0.8,0.5-1.7,0.8-2.6
			l1.4-3.8h1.3l0.5,7.8h-1L658.8,461.5z"/>
	</g>
</g>
<text transform="matrix(1 0 0 1 148.2598 332.7635)" class="st3 st4 st5">OMS</text>
<text transform="matrix(1 0 0 1 141.1237 334.2152)" class="st1 st4 st6">OMS</text>
<rect x="152" y="355.6" class="st2" width="508.1" height="3"/>
</svg>
